#!OML:ASF E:\emotionWalksFemale\Project 1\Capture day 1\Session 1\Female1.ASF
:FULLY-SPECIFIED
:DEGREES
773
root 9.04229 15.4182 28.4325 -4.9462 5.87288 -4.7535
lowerback 8.40261 1.26262 2.27138
upperback -4.29297 2.02972 0.601207
thorax -9.23235 0.867045 -0.96592
lowerneck -4.70998 -4.75535 -8.35028
upperneck 8.58764 -6.5811 9.16533
head 3.90622 -3.12341 3.82953
rclavicle -3.67752e-015 -5.1684e-015
rhumerus -38.5183 13.974 -88.9829
rradius 32.3694
rwrist 16.3455
rhand -0.16037 -51.5808
rfingers 7.12502
rthumb 25.4368 -79.9035
lclavicle -3.67752e-015 -5.1684e-015
lhumerus -48.2234 4.66878 78.77
lradius 31.9824
lwrist -20.3965
lhand -1.63744 -31.7
lfingers 7.12502
lthumb 24.0211 -3.1831
rfemur 0.783247 18.9911 34.6936
rtibia 10.9869
rfoot -9.02483 -33.2411
rtoes 12.5646
lfemur -13.6134 0.17578 -13.8905
ltibia 71.0591
lfoot 1.43583 -0.0965924
ltoes -20.2704
774
root 9.03411 15.4117 28.5584 -4.97536 5.48823 -4.67351
lowerback 8.31803 1.43316 2.24523
upperback -4.19662 2.24905 0.586987
thorax -9.07061 0.977619 -0.9972
lowerneck -4.51979 -4.78213 -8.83604
upperneck 8.36076 -6.62394 9.64288
head 3.84168 -3.1458 4.05944
rclavicle -1.5704e-014 -2.90226e-014
rhumerus -37.7447 14.4495 -88.9159
rradius 32.1985
rwrist 16.5385
rhand 0.104379 -52.0594
rfingers 7.12502
rthumb 25.6903 -80.3458
lclavicle -1.5704e-014 -2.90226e-014
lhumerus -48.5167 4.39235 78.779
lradius 32.1655
lwrist -19.8475
lhand -2.07411 -31.7433
lfingers 7.12502
lthumb 23.6023 -3.17181
rfemur 1.18274 19.0024 34.9511
rtibia 11.5085
rfoot -9.56339 -33.1431
rtoes 11.486
lfemur -14.572 0.343811 -14.0831
ltibia 71.0479
lfoot -0.466801 0.432828
ltoes -22.7875
775
root 9.0328 15.3942 28.678 -5.067 5.41053 -4.6809
lowerback 8.29818 1.46812 2.3987
upperback -4.12696 2.31136 0.57748
thorax -8.97498 1.00026 -1.10124
lowerneck -4.44689 -4.82012 -9.25552
upperneck 8.48168 -6.6794 9.88066
head 3.89291 -3.17738 4.19987
rclavicle 6.65929e-015 -3.97569e-015
rhumerus -37.0962 14.8023 -88.8288
rradius 32.166
rwrist 16.8074
rhand 0.401514 -53.3681
rfingers 7.12502
rthumb 25.9749 -81.613
lclavicle 6.65929e-015 -3.97569e-015
lhumerus -48.9263 4.1823 78.6908
lradius 32.4057
lwrist -19.4306
lhand -2.47227 -32.2517
lfingers 7.12502
lthumb 23.2204 -3.63151
rfemur 1.57524 18.9924 35.2736
rtibia 12.0485
rfoot -10.3077 -33.2747
rtoes 10.861
lfemur -15.4335 0.164039 -14.24
ltibia 70.9229
lfoot -2.24018 1.04981
ltoes -23.1577
776
root 9.03349 15.3791 28.7909 -5.18812 5.35266 -4.68067
lowerback 8.44312 1.48401 2.58557
upperback -4.07315 2.35223 0.499863
thorax -8.9899 1.00615 -1.29851
lowerneck -4.60075 -4.85826 -9.25642
upperneck 8.73908 -6.74043 9.91611
head 4.00337 -3.20002 4.20308
rclavicle 1.65985e-014 -5.1684e-015
rhumerus -36.4621 15.0125 -88.83
rradius 32.1631
rwrist 17.0392
rhand -0.143229 -53.6697
rfingers 7.12502
rthumb 25.4532 -81.9901
lclavicle 1.65985e-014 -5.1684e-015
lhumerus -49.2623 3.95342 78.472
lradius 32.691
lwrist -19.1835
lhand -2.75598 -32.7152
lfingers 7.12502
lthumb 22.9481 -4.06095
rfemur 1.85452 18.7357 35.533
rtibia 12.7484
rfoot -11.0148 -33.1759
rtoes 10.132
lfemur -16.348 -0.0754115 -14.436
ltibia 70.7045
lfoot -3.91446 1.58052
ltoes -23.165
777
root 9.0317 15.3702 28.9063 -5.2465 5.02919 -4.70391
lowerback 8.52444 1.57799 2.74245
upperback -3.97579 2.49378 0.453618
thorax -8.91778 1.0659 -1.45868
lowerneck -4.76358 -4.93339 -9.36025
upperneck 8.93187 -6.84371 10.0043
head 4.10565 -3.24457 4.23669
rclavicle -3.57812e-014 -7.95139e-016
rhumerus -35.535 15.4227 -88.8201
rradius 31.9783
rwrist 16.9727
rhand -0.549812 -54.0842
rfingers 7.12502
rthumb 25.0636 -82.4596
lclavicle -3.57812e-014 -7.95139e-016
lhumerus -49.3736 3.70097 78.3473
lradius 32.9089
lwrist -18.5905
lhand -3.05476 -32.8314
lfingers 7.12502
lthumb 22.6614 -4.14185
rfemur 2.07846 18.4486 35.7919
rtibia 13.452
rfoot -11.4999 -32.7842
rtoes 9.63554
lfemur -17.2522 -0.0483594 -14.5729
ltibia 70.3698
lfoot -5.57885 2.14321
ltoes -22.8645
778
root 9.02845 15.3573 29.0215 -5.2972 4.70728 -4.93575
lowerback 8.62929 1.6942 3.11146
upperback -3.92694 2.69763 0.453347
thorax -8.90208 1.14378 -1.7005
lowerneck -5.08976 -5.01455 -9.3943
upperneck 9.46418 -6.95404 9.92651
head 4.33095 -3.29096 4.20193
rclavicle -7.35503e-015 9.93923e-015
rhumerus -34.8221 15.9774 -88.8691
rradius 31.9279
rwrist 16.58
rhand -0.735761 -54.8314
rfingers 7.12502
rthumb 24.8855 -83.2315
lclavicle -7.35503e-015 9.93923e-015
lhumerus -49.637 3.35951 78.3038
lradius 33.2255
lwrist -17.7548
lhand -3.7273 -33.1639
lfingers 7.12502
lthumb 22.0158 -4.39698
rfemur 2.27966 18.0924 36.2518
rtibia 14.1023
rfoot -11.8459 -32.3603
rtoes 9.39756
lfemur -18.1643 -0.0885051 -14.4379
ltibia 69.913
lfoot -7.19897 2.64619
ltoes -23.1209
779
root 9.02914 15.3371 29.1345 -5.3766 4.35853 -5.12427
lowerback 8.80901 1.78755 3.45188
upperback -3.92463 2.87131 0.437013
thorax -8.9808 1.20545 -1.94298
lowerneck -4.60649 -5.02054 -10.0818
upperneck 9.13522 -7.02424 10.897
head 4.21466 -3.32041 4.62687
rclavicle -3.20043e-014 -2.8625e-014
rhumerus -34.4448 16.3475 -88.9775
rradius 32.0326
rwrist 16.4937
rhand -0.944403 -54.5386
rfingers 7.12502
rthumb 24.6855 -82.9663
lclavicle -3.20043e-014 -2.8625e-014
lhumerus -50.1766 3.13601 78.1917
lradius 33.8425
lwrist -16.8984
lhand -4.24758 -33.0586
lfingers 7.12502
lthumb 21.5162 -4.23371
rfemur 2.51135 17.6668 36.6401
rtibia 14.7465
rfoot -12.3235 -31.852
rtoes 9.28655
lfemur -18.9674 -0.224792 -14.3788
ltibia 69.2706
lfoot -8.64008 3.19554
ltoes -25.5497
